<svg width="38" height="39" viewBox="0 0 38 39" fill="none" xmlns="http://www.w3.org/2000/svg">
<g clip-path="url(#clip0_3_71)">
<path d="M38 19.5C38 8.73044 29.4934 0 19 0C8.50658 0 0 8.73044 0 19.5C0 29.2329 6.94799 37.3002 16.0312 38.7631V25.1367H11.207V19.5H16.0312V15.2039C16.0312 10.3167 18.8679 7.61719 23.2078 7.61719C25.286 7.61719 27.4609 7.99805 27.4609 7.99805V12.7969H25.0652C22.705 12.7969 21.9688 14.3001 21.9688 15.8438V19.5H27.2383L26.3959 25.1367H21.9688V38.7631C31.052 37.3002 38 29.2329 38 19.5Z" fill="white"/>
</g>
<defs>
<clipPath id="clip0_3_71">
<rect width="38" height="39" fill="white"/>
</clipPath>
</defs>
</svg>
