<svg width="39" height="39" viewBox="0 0 39 39" fill="none" xmlns="http://www.w3.org/2000/svg">
<g clip-path="url(#clip0_3_65)">
<path d="M19.5 3.51152C24.7102 3.51152 25.3272 3.53437 27.3762 3.62578C29.2805 3.70957 30.3088 4.02949 30.9943 4.29609C31.9008 4.64648 32.5559 5.07305 33.2338 5.75098C33.9193 6.43652 34.3383 7.08398 34.6887 7.99043C34.9553 8.67598 35.2752 9.71191 35.359 11.6086C35.4504 13.6652 35.4732 14.2822 35.4732 19.4848C35.4732 24.6949 35.4504 25.3119 35.359 27.3609C35.2752 29.2652 34.9553 30.2936 34.6887 30.9791C34.3383 31.8855 33.9117 32.5406 33.2338 33.2186C32.5482 33.9041 31.9008 34.323 30.9943 34.6734C30.3088 34.94 29.2729 35.26 27.3762 35.3438C25.3195 35.4352 24.7025 35.458 19.5 35.458C14.2898 35.458 13.6729 35.4352 11.6238 35.3438C9.71953 35.26 8.69121 34.94 8.00566 34.6734C7.09922 34.323 6.44414 33.8965 5.76621 33.2186C5.08066 32.533 4.66172 31.8855 4.31133 30.9791C4.04473 30.2936 3.7248 29.2576 3.64102 27.3609C3.54961 25.3043 3.52676 24.6873 3.52676 19.4848C3.52676 14.2746 3.54961 13.6576 3.64102 11.6086C3.7248 9.7043 4.04473 8.67598 4.31133 7.99043C4.66172 7.08398 5.08828 6.42891 5.76621 5.75098C6.45176 5.06543 7.09922 4.64648 8.00566 4.29609C8.69121 4.02949 9.72715 3.70957 11.6238 3.62578C13.6729 3.53437 14.2898 3.51152 19.5 3.51152ZM19.5 0C14.2061 0 13.5434 0.0228516 11.4639 0.114258C9.39199 0.205664 7.96758 0.54082 6.73359 1.0207C5.44629 1.52344 4.35703 2.18613 3.27539 3.27539C2.18613 4.35703 1.52344 5.44629 1.0207 6.72598C0.54082 7.96758 0.205664 9.38437 0.114258 11.4562C0.0228516 13.5434 0 14.2061 0 19.5C0 24.7939 0.0228516 25.4566 0.114258 27.5361C0.205664 29.608 0.54082 31.0324 1.0207 32.2664C1.52344 33.5537 2.18613 34.643 3.27539 35.7246C4.35703 36.8063 5.44629 37.4766 6.72598 37.9717C7.96758 38.4516 9.38438 38.7867 11.4563 38.8781C13.5357 38.9695 14.1984 38.9924 19.4924 38.9924C24.7863 38.9924 25.449 38.9695 27.5285 38.8781C29.6004 38.7867 31.0248 38.4516 32.2588 37.9717C33.5385 37.4766 34.6277 36.8063 35.7094 35.7246C36.791 34.643 37.4613 33.5537 37.9564 32.274C38.4363 31.0324 38.7715 29.6156 38.8629 27.5438C38.9543 25.4643 38.9771 24.8016 38.9771 19.5076C38.9771 14.2137 38.9543 13.551 38.8629 11.4715C38.7715 9.39961 38.4363 7.9752 37.9564 6.74121C37.4766 5.44629 36.8139 4.35703 35.7246 3.27539C34.643 2.19375 33.5537 1.52344 32.274 1.02832C31.0324 0.548437 29.6156 0.213281 27.5438 0.121875C25.4566 0.0228516 24.7939 0 19.5 0Z" fill="white"/>
<path d="M19.5 9.4834C13.9699 9.4834 9.4834 13.9699 9.4834 19.5C9.4834 25.0301 13.9699 29.5166 19.5 29.5166C25.0301 29.5166 29.5166 25.0301 29.5166 19.5C29.5166 13.9699 25.0301 9.4834 19.5 9.4834ZM19.5 25.9975C15.9123 25.9975 13.0025 23.0877 13.0025 19.5C13.0025 15.9123 15.9123 13.0025 19.5 13.0025C23.0877 13.0025 25.9975 15.9123 25.9975 19.5C25.9975 23.0877 23.0877 25.9975 19.5 25.9975Z" fill="white"/>
<path d="M32.2512 9.08726C32.2512 10.3822 31.2 11.4257 29.9127 11.4257C28.6178 11.4257 27.5742 10.3746 27.5742 9.08726C27.5742 7.79234 28.6254 6.74878 29.9127 6.74878C31.2 6.74878 32.2512 7.79995 32.2512 9.08726Z" fill="white"/>
</g>
<defs>
<clipPath id="clip0_3_65">
<rect width="39" height="39" fill="white"/>
</clipPath>
</defs>
</svg>
