<svg width="1323" height="2190" viewBox="0 0 1323 2190" fill="none" xmlns="http://www.w3.org/2000/svg">
<g opacity="0.25">
<path d="M1320.03 661.039C1320.03 754.636 1300.33 843.624 1265.07 924.252H1056.63V661.039H793.237V924.252H529.841V661.039H266.445V924.252H58.0113C22.6729 843.624 2.97095 754.636 2.97095 661.039C2.97095 297.589 297.796 2.96875 661.5 2.96875C1025.2 2.96875 1320.03 297.589 1320.03 661.039Z" stroke="white" stroke-width="0.75" stroke-miterlimit="10"/>
<path d="M661.5 1408.41C1003.09 1408.41 1280 1131.69 1280 790.341C1280 448.991 1003.09 172.272 661.5 172.272C319.912 172.272 43.0002 448.991 43.0002 790.341C43.0002 1131.69 319.912 1408.41 661.5 1408.41Z" stroke="white" stroke-width="0.75" stroke-miterlimit="10"/>
<path d="M793.159 739.245H529.763V1002.46H793.159V739.245Z" stroke="white" stroke-width="0.75" stroke-miterlimit="10"/>
<path d="M1056.63 1002.54H793.237V1265.75H1056.63V1002.54Z" stroke="white" stroke-width="0.75" stroke-miterlimit="10"/>
<path d="M529.763 1002.54H266.367V1265.75H529.763V1002.54Z" stroke="white" stroke-width="0.75" stroke-miterlimit="10"/>
<path d="M1320.03 1528.96C1320.03 1435.36 1300.33 1346.38 1265.07 1265.75H1056.63V1528.96H793.237V1265.75H529.841V1528.96H266.445V1265.75H57.9331C22.6729 1346.38 2.97095 1435.36 2.97095 1528.96C2.97095 1892.41 297.796 2187.03 661.5 2187.03C1025.2 2187.03 1320.03 1892.41 1320.03 1528.96Z" stroke="white" stroke-width="0.75" stroke-miterlimit="10"/>
</g>
</svg>
