<svg width="1728" height="1088" viewBox="0 0 1728 1088" fill="none" xmlns="http://www.w3.org/2000/svg">
<g style="mix-blend-mode:screen" opacity="0.15" clip-path="url(#clip0_4_407)">
<path d="M857.328 260.905C857.328 318.943 845.17 374.124 823.412 424.12H694.792V260.905H532.255V424.12H369.719V260.905H207.182V424.12H78.5617C56.8033 374.124 44.6456 318.943 44.6456 260.905C44.6456 35.5322 226.577 -147.159 451.011 -147.159C675.445 -147.159 857.376 35.5322 857.376 260.905H857.328Z" stroke="white" stroke-width="0.75" stroke-miterlimit="10"/>
<path d="M450.963 724.343C661.75 724.343 832.627 552.752 832.627 341.083C832.627 129.415 661.75 -42.1758 450.963 -42.1758C240.175 -42.1758 69.2986 129.415 69.2986 341.083C69.2986 552.752 240.175 724.343 450.963 724.343Z" stroke="white" stroke-width="0.75" stroke-miterlimit="10"/>
<path d="M532.207 309.399H369.671V472.615H532.207V309.399Z" stroke="white" stroke-width="0.75" stroke-miterlimit="10"/>
<path d="M694.791 472.664H532.255V635.88H694.791V472.664Z" stroke="white" stroke-width="0.75" stroke-miterlimit="10"/>
<path d="M369.671 472.664H207.134V635.88H369.671V472.664Z" stroke="white" stroke-width="0.75" stroke-miterlimit="10"/>
<path d="M857.328 799.095C857.328 741.057 845.17 685.876 823.412 635.88H694.792V799.095H532.255V635.88H369.719V799.095H207.182V635.88H78.5617C56.8033 685.876 44.6456 741.057 44.6456 799.095C44.6456 1024.47 226.577 1207.16 451.011 1207.16C675.445 1207.16 857.376 1024.47 857.376 799.095H857.328Z" stroke="white" stroke-width="0.75" stroke-miterlimit="10"/>
<path d="M1497.68 465.639H1335.14V628.855H1497.68V465.639Z" fill="#E5E5E5" stroke="white" stroke-width="0.75" stroke-miterlimit="10"/>
<path d="M1660.22 302.423H1497.68V465.639H1660.22V302.423Z" fill="#E5E5E5" stroke="white" stroke-width="0.75" stroke-miterlimit="10"/>
<path d="M1660.22 628.855H1497.68V792.071H1660.22V628.855Z" fill="#E5E5E5" stroke="white" stroke-width="0.75" stroke-miterlimit="10"/>
<path d="M1822.8 139.159C1765 139.159 1710.05 151.368 1660.27 173.217V302.375H1822.8V465.591H1660.27V628.806H1822.8V792.022H1660.27V921.18C1710.05 943.029 1765 955.238 1822.8 955.238C2047.24 955.238 2229.17 772.547 2229.17 547.174C2229.17 321.802 2047.24 139.111 1822.8 139.111V139.159Z" fill="#E5E5E5" stroke="white" stroke-width="0.75" stroke-miterlimit="10"/>
<path d="M1660.22 465.639H1497.68V628.855H1660.22V465.639Z" stroke="white" stroke-width="0.75" stroke-miterlimit="10"/>
<path d="M1497.68 302.375H1335.14V465.591H1497.68V302.375Z" stroke="white" stroke-width="0.75" stroke-miterlimit="10"/>
<path d="M1497.68 628.855H1335.14V792.071H1497.68V628.855Z" stroke="white" stroke-width="0.75" stroke-miterlimit="10"/>
<path d="M1822.75 302.375H1660.22V465.591H1822.75V302.375Z" stroke="white" stroke-width="0.75" stroke-miterlimit="10"/>
<path d="M1822.75 628.855H1660.22V792.071H1822.75V628.855Z" stroke="white" stroke-width="0.75" stroke-miterlimit="10"/>
<path d="M1578.97 139.159C1521.18 139.159 1466.22 151.368 1416.44 173.217V302.375H1578.97V465.591H1416.44V628.806H1578.97V792.022H1416.44V921.18C1466.22 943.029 1521.18 955.238 1578.97 955.238C1803.41 955.238 1985.34 772.547 1985.34 547.174C1985.34 321.802 1803.41 139.111 1578.97 139.111V139.159Z" stroke="white" stroke-width="0.75" stroke-miterlimit="10"/>
<path d="M1985.34 547.271C1985.34 489.232 1973.18 434.052 1951.42 384.055H1822.8V547.271H1660.26V384.055H1497.73V547.271H1335.19V384.055H1206.57C1184.81 434.052 1172.66 489.232 1172.66 547.271C1172.66 772.644 1354.59 955.335 1579.02 955.335C1803.46 955.335 1985.39 772.644 1985.39 547.271H1985.34Z" stroke="white" stroke-width="0.75" stroke-miterlimit="10"/>
<path d="M1985.34 547.223C1985.34 605.261 1973.18 660.442 1951.42 710.438H1822.8V547.223H1660.26V710.438H1497.73V547.223H1335.19V710.438H1206.57C1184.81 660.442 1172.66 605.261 1172.66 547.223C1172.66 321.85 1354.59 139.159 1579.02 139.159C1803.46 139.159 1985.39 321.85 1985.39 547.223H1985.34Z" stroke="white" stroke-width="0.75" stroke-miterlimit="10"/>
</g>
<defs>
<clipPath id="clip0_4_407">
<rect width="3804" height="1088" fill="white" transform="translate(-1573)"/>
</clipPath>
</defs>
</svg>
