<svg width="499" height="178" viewBox="0 0 499 178" fill="none" xmlns="http://www.w3.org/2000/svg">
<g opacity="0.6" clip-path="url(#clip0_4_378)">
<path d="M117.529 37.7451C109.947 37.7451 102.739 39.3453 96.2079 42.2092V59.1386H117.529V80.5321H96.2079V101.926H117.529V123.319H96.2079V140.249C102.739 143.112 109.947 144.713 117.529 144.713C146.97 144.713 170.835 120.766 170.835 91.2257C170.835 61.685 146.97 37.7387 117.529 37.7387V37.7451Z" stroke="white" stroke-width="0.75" stroke-miterlimit="10"/>
<path d="M53.5466 37.7451C61.1283 37.7451 68.3366 39.3453 74.8677 42.2092V59.1386H53.5466V80.5321H74.8677V101.926H53.5466V123.319H74.8677V140.249C68.3366 143.112 61.1283 144.713 53.5466 144.713C24.1058 144.713 0.240488 120.766 0.240488 91.2257C0.240488 61.685 24.1058 37.7451 53.5466 37.7451Z" stroke="white" stroke-width="0.75" stroke-miterlimit="10"/>
<path d="M138.876 123.281C138.876 115.674 137.281 108.441 134.426 101.888H117.554V123.281H96.2332V101.888H74.912V123.281H53.5909V101.888H36.7187C33.8645 108.441 32.2697 115.674 32.2697 123.281C32.2697 152.822 56.135 176.768 85.5758 176.768C115.017 176.768 138.882 152.822 138.882 123.281H138.876Z" stroke="white" stroke-width="0.75" stroke-miterlimit="10"/>
<path d="M138.876 59.1322C138.876 66.7397 137.281 73.9725 134.426 80.5258H117.554V59.1322H96.2332V80.5258H74.912V59.1322H53.5909V80.5258H36.7187C33.8645 73.9725 32.2697 66.7397 32.2697 59.1322C32.2697 29.5915 56.135 5.64525 85.5758 5.64525C115.017 5.64525 138.882 29.5915 138.882 59.1322H138.876Z" stroke="white" stroke-width="0.75" stroke-miterlimit="10"/>
<path d="M74.8804 80.5385H53.5592V101.932H74.8804V80.5385Z" fill="#E5E5E5" stroke="white" stroke-miterlimit="10"/>
<path d="M96.2015 59.1386H74.8804V80.5321H96.2015V59.1386Z" fill="#E5E5E5" stroke="white" stroke-miterlimit="10"/>
<path d="M96.2015 101.932H74.8804V123.326H96.2015V101.932Z" fill="#E5E5E5" stroke="white" stroke-miterlimit="10"/>
<path d="M117.529 37.7451C109.947 37.7451 102.739 39.3453 96.2079 42.2092V59.1386H117.529V80.5321H96.2079V101.926H117.529V123.319H96.2079V140.249C102.739 143.112 109.947 144.713 117.529 144.713C146.97 144.713 170.835 120.766 170.835 91.2257C170.835 61.685 146.97 37.7387 117.529 37.7387V37.7451Z" fill="#E5E5E5" stroke="white" stroke-miterlimit="10"/>
<path d="M318.805 53.7283C318.805 61.3357 317.21 68.5685 314.356 75.1218H297.484V53.7283H276.163V75.1218H254.841V53.7283H233.52V75.1218H216.648C213.794 68.5685 212.199 61.3357 212.199 53.7283C212.199 24.1876 236.064 0.241302 265.505 0.241302C294.946 0.241302 318.811 24.1876 318.811 53.7283H318.805Z" stroke="white" stroke-width="0.75" stroke-miterlimit="10"/>
<path d="M265.499 114.473C293.149 114.473 315.565 91.9822 315.565 64.2377C315.565 36.4933 293.149 14.002 265.499 14.002C237.848 14.002 215.433 36.4933 215.433 64.2377C215.433 91.9822 237.848 114.473 265.499 114.473Z" stroke="white" stroke-width="0.75" stroke-miterlimit="10"/>
<path d="M276.156 60.0848H254.835V81.4783H276.156V60.0848Z" stroke="white" stroke-width="0.75" stroke-miterlimit="10"/>
<path d="M297.484 81.4846H276.163V102.878H297.484V81.4846Z" stroke="white" stroke-width="0.75" stroke-miterlimit="10"/>
<path d="M254.835 81.4846H233.514V102.878H254.835V81.4846Z" stroke="white" stroke-width="0.75" stroke-miterlimit="10"/>
<path d="M318.805 124.272C318.805 116.664 317.21 109.431 314.356 102.878H297.484V124.272H276.163V102.878H254.841V124.272H233.52V102.878H216.648C213.794 109.431 212.199 116.664 212.199 124.272C212.199 153.812 236.064 177.759 265.505 177.759C294.946 177.759 318.811 153.812 318.811 124.272H318.805Z" stroke="white" stroke-width="0.75" stroke-miterlimit="10"/>
<path d="M402.805 80.5639H381.484V101.957H402.805V80.5639Z" fill="#E5E5E5" stroke="white" stroke-width="0.75" stroke-miterlimit="10"/>
<path d="M424.126 59.1703H402.805V80.5639H424.126V59.1703Z" fill="#E5E5E5" stroke="white" stroke-width="0.75" stroke-miterlimit="10"/>
<path d="M424.126 101.957H402.805V123.351H424.126V101.957Z" fill="#E5E5E5" stroke="white" stroke-width="0.75" stroke-miterlimit="10"/>
<path d="M445.453 37.7705C437.872 37.7705 430.663 39.3707 424.132 42.2346V59.164H445.453V80.5575H424.132V101.951H445.453V123.345H424.132V140.274C430.663 143.138 437.872 144.738 445.453 144.738C474.894 144.738 498.76 120.792 498.76 91.2511C498.76 61.7104 474.894 37.7641 445.453 37.7641V37.7705Z" fill="#E5E5E5" stroke="white" stroke-width="0.75" stroke-miterlimit="10"/>
<path d="M424.126 80.5639H402.805V101.957H424.126V80.5639Z" stroke="white" stroke-width="0.75" stroke-miterlimit="10"/>
<path d="M402.805 59.164H381.484V80.5575H402.805V59.164Z" stroke="white" stroke-width="0.75" stroke-miterlimit="10"/>
<path d="M402.805 101.957H381.484V123.351H402.805V101.957Z" stroke="white" stroke-width="0.75" stroke-miterlimit="10"/>
<path d="M445.447 59.164H424.126V80.5575H445.447V59.164Z" stroke="white" stroke-width="0.75" stroke-miterlimit="10"/>
<path d="M445.447 101.957H424.126V123.351H445.447V101.957Z" stroke="white" stroke-width="0.75" stroke-miterlimit="10"/>
<path d="M413.469 37.7705C405.887 37.7705 398.679 39.3707 392.147 42.2346V59.164H413.469V80.5575H392.147V101.951H413.469V123.345H392.147V140.274C398.679 143.138 405.887 144.738 413.469 144.738C442.909 144.738 466.775 120.792 466.775 91.2511C466.775 61.7104 442.909 37.7641 413.469 37.7641V37.7705Z" stroke="white" stroke-width="0.75" stroke-miterlimit="10"/>
<path d="M466.775 91.2638C466.775 83.6564 465.18 76.4236 462.326 69.8703H445.453V91.2638H424.132V69.8703H402.811V91.2638H381.49V69.8703H364.618C361.764 76.4236 360.169 83.6564 360.169 91.2638C360.169 120.805 384.034 144.751 413.475 144.751C442.916 144.751 466.781 120.805 466.781 91.2638H466.775Z" stroke="white" stroke-width="0.75" stroke-miterlimit="10"/>
<path d="M466.775 91.2575C466.775 98.8649 465.18 106.098 462.326 112.651H445.453V91.2575H424.132V112.651H402.811V91.2575H381.49V112.651H364.618C361.764 106.098 360.169 98.8649 360.169 91.2575C360.169 61.7167 384.034 37.7705 413.475 37.7705C442.916 37.7705 466.781 61.7167 466.781 91.2575H466.775Z" stroke="white" stroke-width="0.75" stroke-miterlimit="10"/>
</g>
<defs>
<clipPath id="clip0_4_378">
<rect width="499" height="178" fill="white"/>
</clipPath>
</defs>
</svg>
